<?xml version="1.0" encoding="UTF-8" standalone="no"?><!DOCTYPE svg PUBLIC "-//W3C//DTD SVG 1.1//EN" "http://www.w3.org/Graphics/SVG/1.1/DTD/svg11.dtd"><svg viewBox="0 0 904.8 2000" xmlns="http://www.w3.org/2000/svg" xmlns:xlink="http://www.w3.org/1999/xlink"><style>:root>svg{display:none}:root>svg:target{display:block}</style><svg viewBox="0 0 362.734 512" id="css" xmlns="http://www.w3.org/2000/svg"><path fill="#264de4" d="M362.734 100.62l-33.046 370.199L181.145 512 33.011 470.877 0 100.62z"/><path fill="#2965f1" d="M301.397 447.246l28.24-316.352h-148.27v349.629z"/><path fill="#ebebeb" d="M75.677 268.217l4.07 45.41h101.62v-45.41zM181.367 176.305H67.499l4.128 45.411h109.74zM181.367 433.399v-47.246l-.199.053-50.574-13.656-3.233-36.217H81.776l6.362 71.301 93.02 25.823z"/><path d="M85.367 0h55v23h-32v23h32v23h-55zM151.367 0h55v20h-32v4h32v46h-55V49h32v-4h-32zM217.367 0h55v20h-32v4h32v46h-55V49h32v-4h-32z"/><path fill="#fff" d="M237.128 313.627l-5.271 58.894-50.647 13.67v47.244l93.094-25.801.683-7.672 10.671-119.551 1.108-12.194 8.198-91.912H181.21v45.411h63.988l-4.132 46.501H181.21v45.41z"/></svg><svg viewBox="0 0 512 512" id="github" xmlns="http://www.w3.org/2000/svg"><path d="M462 10H50c-22.09 0-40 17.91-40 40v412c0 22.09 17.91 40 40 40h412c22.09 0 40-17.91 40-40V50c0-22.09-17.91-40-40-40zm0 0" fill="#709193"/><path d="M256 116c88.371 0 160 71.629 160 160 0 72.66-48.43 134.012-114.781 153.52-3.278-3.56-5.188-8.301-5.219-13.52v-39.82c.031-18.309-7.219-23.14-12.512-31.22 83.614-12.48 86.242-89.358 57.043-123.94-.453-.52-.86-1.508-.672-2.07 4.48-13.54 3.903-43.36-6.347-42.891-14.043.652-25.242 8.562-38.274 16.312-.988.578-1.777.809-2.93.5-11.98-3.25-24.09-5.012-36.308-5.16-12.219.148-24.328 1.91-36.309 5.16-1.152.309-1.941.078-2.93-.5-13.03-7.75-24.23-15.66-38.273-16.312-10.25-.47-10.828 29.351-6.347 42.89.187.563-.22 1.551-.672 2.07-29.2 34.583-26.57 111.461 57.043 123.942-5.293 8.078-12.543 12.91-12.512 31.219V416c-.031 5.219-1.941 9.96-5.219 13.52C144.43 410.012 96 348.66 96 276c0-88.371 71.629-160 160-160zm0 0" fill="#f0f0fa"/><path d="M386 53c0 5.523-4.477 10-10 10s-10-4.477-10-10 4.477-10 10-10 10 4.477 10 10zm0 0M256 106c-93.738 0-170 76.262-170 170 0 94.645 76.879 170 170 170 93.324 0 170-75.488 170-170 0-93.738-76.262-170-170-170zm-30.793 316.82c.508-2.207.781-4.492.793-6.82v-39.836c-.023-14.582 5.059-16.844 10.875-25.726a10.013 10.013 0 00.762-9.57 9.992 9.992 0 00-7.649-5.798c-39.668-5.922-55.238-26.37-61.316-42.48-8.094-21.461-3.809-48.223 10.418-65.094 2.164-2.543 4.101-7.113 2.547-11.687-3.035-9.168-2.563-23.813-.672-29.477 8.617 1.262 16.668 6.145 25.84 11.711 5.308 3.227 9.082 6.203 15.504 4.477 11.222-3.043 22.558-4.66 33.691-4.81 11.137.145 22.473 1.767 33.71 4.813 6.384 1.723 10.282-1.32 15.485-4.48 9.176-5.566 17.227-10.453 25.844-11.711 1.89 5.66 2.363 20.3-.644 29.395-1.582 4.652.351 9.226 2.515 11.77 14.23 16.866 18.516 43.632 10.418 65.093-6.074 16.11-21.644 36.558-61.312 42.476a10.005 10.005 0 00-6.891 15.372c5.805 8.863 10.902 11.125 10.879 25.742v39.875c.012 2.304.281 4.574.785 6.765a150.715 150.715 0 01-61.582 0zm80.902-5.402A11.262 11.262 0 01306 416v-39.805c.02-11.476-2.504-18.941-5.629-24.539 30.348-8.203 51.977-26.308 61.668-52.008 10.238-27.144 5.594-59.593-11.45-82.058 3.106-13.668 3.016-35.254-4.425-45.07-3.328-4.395-7.976-6.672-13.117-6.45-15.637.723-27.688 8.528-40.813 16.442-12.011-3.04-24.144-4.653-36.113-4.801a2.504 2.504 0 00-.242 0c-11.973.144-24.113 1.762-36.113 4.8-13.024-7.85-25.11-15.714-40.817-16.44-5.117-.235-9.781 2.054-13.113 6.449-7.43 9.8-7.531 31.335-4.422 45.062-17.043 22.465-21.691 54.922-11.453 82.066 9.691 25.7 31.32 43.805 61.668 52.004-2.469 4.422-4.555 10.016-5.316 17.817-12.368 4.324-22.38 1.472-29.176-9.98-7.95-13.372-21.418-24.157-36.856-22.825-5.504.477-9.578 5.324-9.101 10.824.472 5.504 5.336 9.586 10.824 9.106 7.148-.621 14.2 6.824 17.937 13.11 10.688 18.01 28 24.44 46.059 20.577v25.66c-.004.504-.047.993-.113 1.473C146.687 396.41 106 339.394 106 276c0-82.71 67.29-150 150-150s150 67.29 150 150c0 63.395-40.687 120.41-99.89 141.418zm0 0"/><path d="M462 0H50C22.43 0 0 22.43 0 50v412c0 27.57 22.43 50 50 50h412c27.57 0 50-22.43 50-50V50c0-27.57-22.43-50-50-50zm30 462c0 16.543-13.457 30-30 30H50c-16.543 0-30-13.457-30-30V50c0-16.543 13.457-30 30-30h412c16.543 0 30 13.457 30 30zm0 0"/><path d="M136 63h200c5.523 0 10-4.477 10-10s-4.477-10-10-10H136c-5.523 0-10 4.477-10 10s4.477 10 10 10zm0 0"/></svg><svg viewBox="0 0 256 566" preserveAspectRatio="xMinYMin meet" id="gulp" xmlns="http://www.w3.org/2000/svg"><path d="M197.28 548.749l5.427-90.43 14.985-25.58s-34.106 13.952-91.205 13.952c-57.1 0-90.689-13.694-90.689-13.694l16.794 27.904 5.941 87.848c0 9.418 31.059 17.052 69.374 17.052 38.313 0 69.373-7.634 69.373-17.052m-17.119-422.295l11.391-45.025 63.081-66.376L238.007.892l-66.784 70.707-13.226 53.793a886.14 886.14 0 00-29.873-.497c-70.336 0-127.355 8.016-127.355 17.902 0 9.887 57.019 17.902 127.355 17.902 70.335 0 127.353-8.015 127.353-17.902 0-7.28-30.924-13.546-75.316-16.343" fill="#D34A47"/><path d="M173.535 151.669s-2.467.553-9.724.584c-7.259.03-12.413-.047-14.466-1.917-.552-.502-.854-1.499-.851-2.174.006-1.285.918-2.042 2.08-2.516l1.099 1.724c-.478.165-.751.36-.752.568-.004.976 7.422 1.644 13.102 1.572 5.681-.07 12.545-.538 12.551-1.5 0-.291-.519-.565-1.422-.781l1.094-1.712c1.472.457 2.757 1.34 2.754 2.868-.014 2.598-3.32 2.993-5.465 3.284" fill="#FFF"/><path d="M254.509 15.184c1.586-1.832-.821-6.518-5.376-10.465C244.576.774 239.596-.94 238.007.892c-1.587 1.832.821 6.518 5.378 10.463 4.555 3.946 9.537 5.662 11.124 3.829m-60.263 312.681c-1.495-14.384 31.462-35.216 23.004-35.883-18.208 1.041-27.27 21.338-36.431 42.596-3.357 7.791-14.844 41.013-22.378 36.923-7.532-4.088 9.765-31.407 14.613-47.631-5.594 4.102-26.109 20.041-31.396 5.114-8.5 7.219-26.663 11.13-24.614-7.833-4.522 8.01-14.671 19.193-26.853 14.546-15.998-6.101 9.27-57.062 15.553-54.491 6.284 2.57-1.268 14.179-3.246 18.687-4.35 9.921-9.375 22.393-6.018 24.946 5.751 4.374 21.401-16.547 21.749-17.007 2.927-3.867 11.266-29.166 17.987-26.261 6.721 2.905-16.764 36.308-7.983 42.937 1.771 1.338 9.017-.825 13.425-5.594 2.852-3.085 1.871-9.918 11.378-32.59 9.507-22.671 17.98-50.905 24.5-48.754 6.52 2.15 1.146 16.641-1.193 22.043-10.976 25.354-29.956 67.241-21.005 64.07 8.951-3.17 13.612-3.356 22.377-13.613 8.765-10.257 8.361-27.152 14.203-26.793 5.844.36 4.863 5.777 3.446 9.902 5.75-6.58 27.256-20.438 32.448-6.713 6.15 16.249-30.769 39.72-21.564 38.523 8.975-1.167 23.515-10.376 29.723-18.749l17.088-153.626s-17.195 14.23-126.589 14.23c-109.395 0-124.811-13.934-124.811-13.934l14.548 140.224c7.722-21.947 26.059-66.339 54.963-64.849 13.148.678 30.7 25.995 15.665 26.853-6.364.362-7.01-12.637-14.546-14.546-5.438-1.378-13.009 3.043-17.902 7.833-9.758 9.55-30.745 47.229-27.972 66.014 3.533 23.949 33.048-8.322 38.042-17.903 3.517-6.749 5.893-26.745 13.585-24.647 7.693 2.098-.671 22.734-6.247 40.979-6.264 20.487-9.557 42.098-17.408 39.612-7.852-2.484 4.938-28.932 4.475-33.566-7.38 6.809-20.976 24.047-38.37 15.515l9.035 87.078s24.013 18.973 96.35 18.973c72.337 0 97.239-18.677 97.239-18.677l11.219-100.857c-9.179 8.938-38.229 24.81-40.089 6.919" fill="#D34A47"/></svg><svg viewBox="0 0 512 512" id="html" xmlns="http://www.w3.org/2000/svg"><path d="M108.4 0h23v22.8h21.2V0h23v69h-23V46h-21v23h-23.2M206 23h-20.3V0h63.7v23H229v46h-23m53.5-69h24.1l14.8 24.3L313.2 0h24.1v69h-23V34.8l-16.1 24.8-16.1-24.8V69h-22.6m89.2-69h23v46.2h32.6V69h-55.6"/><path fill="#e44d26" d="M107.6 471l-33-370.4h362.8l-33 370.2L255.7 512"/><path fill="#f16529" d="M256 480.5V131h148.3L376 447"/><path fill="#ebebeb" d="M142 176.3h114v45.4h-64.2l4.2 46.5h60v45.3H154.4m2 22.8H202l3.2 36.3 50.8 13.6v47.4l-93.2-26"/><path fill="#fff" d="M369.6 176.3H255.8v45.4h109.6m-4.1 46.5H255.8v45.4h56l-5.3 59-50.7 13.6v47.2l93-25.8"/></svg><svg viewBox="0 0 512 512" id="instagram" xmlns="http://www.w3.org/2000/svg"><path d="M362 502H150c-77.32 0-140-62.68-140-140V150C10 72.68 72.68 10 150 10h212c77.32 0 140 62.68 140 140v212c0 77.32-62.68 140-140 140z" fill="#e68cbe"/><path d="M362 458H150c-53.019 0-96-42.981-96-96V150c0-53.019 42.981-96 96-96h212c53.019 0 96 42.981 96 96v212c0 53.019-42.981 96-96 96z" fill="#fff"/><circle cx="256" cy="256" r="128" fill="#ff5a5a"/><circle cx="256" cy="256" r="80" fill="#fff"/><circle cx="387.25" cy="124.75" r="28" fill="#ff5a5a"/><path d="M362 512H150C67.29 512 0 444.71 0 362V150C0 67.29 67.29 0 150 0h212c82.71 0 150 67.29 150 150v212c0 82.71-67.29 150-150 150zM150 20C78.318 20 20 78.318 20 150v212c0 71.682 58.318 130 130 130h212c71.682 0 130-58.318 130-130V150c0-71.682-58.318-130-130-130H150z"/><path d="M362 468h-60.333c-5.523 0-10-4.477-10-10s4.477-10 10-10H362c47.42 0 86-38.58 86-86V150c0-47.42-38.58-86-86-86H150c-47.42 0-86 38.58-86 86v212c0 47.42 38.58 86 86 86h61c5.523 0 10 4.477 10 10s-4.477 10-10 10h-61c-58.449 0-106-47.551-106-106V150C44 91.551 91.551 44 150 44h212c58.449 0 106 47.551 106 106v212c0 58.449-47.551 106-106 106z"/><path d="M256 468c-2.63 0-5.21-1.07-7.07-2.93S246 460.63 246 458s1.07-5.21 2.93-7.07c1.86-1.86 4.44-2.93 7.07-2.93s5.21 1.07 7.07 2.93c1.86 1.86 2.93 4.44 2.93 7.07s-1.07 5.21-2.93 7.07S258.63 468 256 468zM168.117 172.939a9.97 9.97 0 01-7.275-3.137c-3.791-4.017-3.607-10.346.41-14.136l.443-.417c4.031-3.775 10.358-3.569 14.135.461 3.776 4.03 3.569 10.359-.461 14.135l-.391.367a9.966 9.966 0 01-6.861 2.727z"/><path d="M256 394c-76.093 0-138-61.907-138-138 0-23.875 6.197-47.408 17.921-68.054 2.728-4.803 8.831-6.484 13.634-3.758 4.803 2.728 6.485 8.832 3.758 13.634C143.295 215.463 138 235.581 138 256c0 65.065 52.935 118 118 118s118-52.935 118-118-52.935-118-118-118c-19.055 0-37.238 4.398-54.043 13.073-4.907 2.532-10.939.608-13.473-4.299-2.533-4.908-.608-10.94 4.299-13.473C212.176 123.291 234.036 118 256 118c76.093 0 138 61.907 138 138s-61.907 138-138 138z"/><path d="M256 346c-49.626 0-90-40.374-90-90s40.374-90 90-90 90 40.374 90 90-40.374 90-90 90zm0-160c-38.598 0-70 31.402-70 70s31.402 70 70 70 70-31.402 70-70-31.402-70-70-70zM387.25 162.75c-20.953 0-38-17.047-38-38s17.047-38 38-38 38 17.047 38 38-17.047 38-38 38zm0-56c-9.925 0-18 8.075-18 18s8.075 18 18 18 18-8.075 18-18-8.075-18-18-18z"/></svg><svg viewBox="0 0 128 128" id="jquery" xmlns="http://www.w3.org/2000/svg"><path fill="#0868AC" d="M27.758 20.421c-7.352 10.565-6.437 24.312-.82 35.54l.411.798.263.506.164.291.293.524c.174.307.353.612.536.919l.306.504c.203.326.41.65.622.973l.265.409c.293.437.592.872.901 1.301l.026.033.152.205c.267.368.542.732.821 1.093l.309.393c.249.313.502.623.759.934l.29.346c.345.406.698.812 1.057 1.208l.021.022.041.045c.351.383.71.758 1.075 1.133l.344.347c.282.284.569.563.858.841l.351.334c.387.364.777.722 1.176 1.07l.018.016.205.174c.351.305.708.605 1.068.902l.442.353c.294.235.591.468.89.696l.477.361c.33.243.663.482.999.717l.363.258.101.072c.318.22.645.431.97.642l.42.28c.5.315 1.007.628 1.519.93l.42.237c.377.217.756.431 1.14.639l.631.326.816.424.188.091.334.161c.427.204.858.405 1.293.599l.273.122c.498.218 1.001.427 1.508.628l.368.144c.469.182.945.359 1.423.527l.179.062c.524.184 1.054.353 1.587.52l.383.114c.542.164 1.079.358 1.638.462 35.553 6.483 45.88-21.364 45.88-21.364-8.674 11.3-24.069 14.28-38.656 10.962-.553-.125-1.089-.298-1.628-.456l-.406-.124a44.793 44.793 0 01-1.568-.51l-.215-.077a49.537 49.537 0 01-1.382-.513l-.388-.152c-.501-.198-1-.405-1.492-.62l-.298-.133a55.398 55.398 0 01-1.259-.585l-.364-.175c-.327-.159-.65-.328-.974-.495l-.649-.341c-.395-.21-.782-.43-1.167-.654l-.394-.219a58.203 58.203 0 01-1.52-.932l-.41-.273a40.515 40.515 0 01-1.081-.719l-.349-.245a54.203 54.203 0 01-1.022-.738l-.453-.343c-.31-.237-.618-.476-.922-.721l-.411-.33c-.388-.318-.771-.64-1.149-.969l-.126-.105a54.797 54.797 0 01-1.208-1.098l-.34-.328a33.158 33.158 0 01-.868-.851l-.34-.34c-.362-.37-.717-.745-1.065-1.126l-.053-.057a41.973 41.973 0 01-1.08-1.229l-.283-.336a44.66 44.66 0 01-.777-.961l-.285-.355a52.469 52.469 0 01-.898-1.195c-8.098-11.047-11.008-26.283-4.535-38.795m17.081-1.626c-5.316 7.65-5.028 17.893-.88 25.983a33.747 33.747 0 002.351 3.925c.796 1.143 1.68 2.501 2.737 3.418.383.422.784.834 1.193 1.238l.314.311c.397.385.801.764 1.218 1.132l.05.043.012.012c.462.405.939.794 1.423 1.178l.323.252c.486.372.981.738 1.489 1.087l.043.033.68.447.322.213c.363.233.73.459 1.104.676l.156.092c.322.185.648.367.975.545l.347.18.682.354.103.047c.469.23.941.453 1.424.663l.314.13c.386.163.775.323 1.167.473l.5.184c.356.132.712.253 1.072.373l.484.155c.511.158 1.017.359 1.549.448 27.45 4.547 33.787-16.588 33.787-16.588-5.712 8.228-16.775 12.153-28.58 9.089a34.726 34.726 0 01-1.555-.449l-.467-.151a29 29 0 01-1.087-.374l-.491-.183a38.673 38.673 0 01-1.171-.473l-.315-.133a32.78 32.78 0 01-1.432-.666l-.718-.365-.414-.213c-.306-.166-.61-.338-.909-.514l-.217-.123a30.75 30.75 0 01-1.1-.672l-.332-.221-.712-.472a37.364 37.364 0 01-1.484-1.085l-.334-.264c-5.167-4.079-9.263-9.655-11.21-15.977-2.041-6.557-1.601-13.917 1.935-19.891m14.847-.518c-3.134 4.612-3.442 10.341-1.267 15.435 2.293 5.407 6.992 9.648 12.477 11.66l.682.235.3.096c.323.102.644.22.978.282 15.157 2.929 19.268-7.777 20.362-9.354-3.601 5.185-9.653 6.43-17.079 4.627a18.837 18.837 0 01-1.796-.555 22.303 22.303 0 01-2.134-.886 22.19 22.19 0 01-3.741-2.282c-6.645-5.042-10.772-14.659-6.436-22.492"/><path fill="#131B28" d="M66.359 96.295h-4.226a.556.556 0 00-.517.417l-1.5 6.94-1.5 6.94a.554.554 0 01-.516.417h-2.991c-2.959 0-2.617-2.047-2.011-4.851l.018-.085.066-.354.012-.066.135-.72.145-.771.154-.785.682-3.332.683-3.332a.336.336 0 00-.341-.419h-4.337a.55.55 0 00-.514.418l-.933 4.424-.932 4.425-.002.006-.086.412c-1.074 4.903-.79 9.58 5.048 9.727l.17.003h9.163a.554.554 0 00.516-.417l1.976-9.289 1.976-9.29c.049-.23-.103-.417-.338-.418zm-45.256-.049h-4.64a.562.562 0 00-.521.416l-.44 1.942-.44 1.942c-.051.229.098.416.333.416h4.676a.556.556 0 00.518-.417l.425-1.941.425-1.941c.049-.229-.101-.417-.336-.417zm-1.346 6.044H15.08a.563.563 0 00-.521.416l-.657 2.91-.656 2.909-.183.834-.631 2.97-.63 2.971c-.049.229-.15.599-.225.821 0 0-.874 2.6-2.343 2.57l-.184-.004-1.271-.023h-.001a.558.558 0 00-.524.407l-.485 2.039-.484 2.038c-.055.228.093.416.326.42.833.01 2.699.031 3.828.031 3.669 0 5.604-2.033 6.843-7.883l1.451-6.714 1.361-6.297c.049-.227-.103-.415-.337-.415zm86.117-1.574l-.194-.801-.191-.82-.097-.414c-.38-1.477-1.495-2.328-3.917-2.328l-3.77-.004-3.472-.005h-3.907a.552.552 0 00-.515.417l-.173.816-.204.964-.057.271-1.759 8.24-1.67 7.822c-.05.23-.066.512-.038.626.028.115.479.209.713.209h3.524c.235 0 .532-.042.66-.094s.317-.513.364-.742l.626-3.099.627-3.1.001-.005.084-.413.76-3.56.671-3.144a.555.555 0 01.515-.417l11.089-.005c.235.002.383-.185.33-.414zm14.275-7.24l-.854.003h-3.549a.904.904 0 00-.667.353l-7.849 11.498c-.132.194-.283.166-.335-.062l-.578-2.533a.562.562 0 00-.522-.416h-5.045c-.235 0-.374.184-.31.409l2.261 7.921c.064.226.069.596.011.824l-.985 3.833c-.059.228.085.413.32.413h4.987a.58.58 0 00.532-.413l.986-3.833a2.52 2.52 0 01.363-.755l12.742-16.911c.142-.188.065-.341-.169-.339l-1.339.008zm-40.086 9.919v-.004a.514.514 0 01-.499.441h-6.397c-.222 0-.334-.15-.301-.336l.006-.015-.004.002.003-.021.029-.109c.611-1.624 1.855-2.69 4.194-2.69 2.634-.001 3.148 1.285 2.969 2.732zm-1.877-7.384c-8.211 0-10.157 4.984-11.249 10.015-1.091 5.128-.998 9.921 7.5 9.921h1.03l.256-.001h.06l1.02-.003h.018c2.244-.009 4.495-.026 5.406-.033a.553.553 0 00.509-.42l.344-1.681.067-.327.41-2.006a.335.335 0 00-.341-.418h-7.639c-3.039 0-3.941-.807-3.608-3.181H84.18l-.001.001.008-.001a.503.503 0 00.445-.315l.029-.106-.001.001c1.813-6.839 1.293-11.445-6.474-11.446zm-38.81 7.358l-.116.409v.001l-.922 3.268-.922 3.267a.596.596 0 01-.543.411h-4.88c-3.702 0-4.604-2.896-3.702-7.166.901-4.368 2.668-7.083 6.312-7.358 4.98-.376 5.976 3.126 4.773 7.168zm3.348 7.105s2.301-5.588 2.823-8.814c.713-4.319-1.45-10.585-9.804-10.585-8.306 0-11.914 5.981-13.29 12.484-1.376 6.55.427 12.293 8.686 12.246l6.516-.024 6.089-.022a.59.59 0 00.534-.414l1.061-4.046c.059-.228-.084-.414-.319-.416l-1.017-.006-1.017-.006c-.199-.001-.313-.131-.289-.302l.027-.095zm41.12-3.741a.28.28 0 11-.56.001.28.28 0 01.56-.001z"/></svg><svg viewBox="0 0 630 630" id="js" xmlns="http://www.w3.org/2000/svg"><path fill="#f7df1e" d="M0 0h630v630H0z"/><path d="M423.2 492.19c12.69 20.72 29.2 35.95 58.4 35.95 24.53 0 40.2-12.26 40.2-29.2 0-20.3-16.1-27.49-43.1-39.3l-14.8-6.35c-42.72-18.2-71.1-41-71.1-89.2 0-44.4 33.83-78.2 86.7-78.2 37.64 0 64.7 13.1 84.2 47.4l-46.1 29.6c-10.15-18.2-21.1-25.37-38.1-25.37-17.34 0-28.33 11-28.33 25.37 0 17.76 11 24.95 36.4 35.95l14.8 6.34c50.3 21.57 78.7 43.56 78.7 93 0 53.3-41.87 82.5-98.1 82.5-54.98 0-90.5-26.2-107.88-60.54zm-209.13 5.13c9.3 16.5 17.76 30.45 38.1 30.45 19.45 0 31.72-7.61 31.72-37.2v-201.3h59.2v202.1c0 61.3-35.94 89.2-88.4 89.2-47.4 0-74.85-24.53-88.81-54.075z"/></svg><svg viewBox="0 0 547.8 410.6" id="sass" xmlns="http://www.w3.org/2000/svg"><path fill="#CD6799" d="M471.4 236c-19.1.1-35.7 4.7-49.6 11.5-5.1-10.1-10.2-19.1-11.1-25.7-1-7.7-2.2-12.4-1-21.6 1.2-9.2 6.6-22.3 6.5-23.3s-1.2-5.7-12.2-5.8c-11-.1-20.5 2.1-21.6 5-1.1 2.9-3.2 9.5-4.6 16.3-1.9 10-22 45.7-33.5 64.4-3.7-7.3-6.9-13.7-7.6-18.8-1-7.7-2.2-12.4-1-21.6 1.2-9.2 6.6-22.3 6.5-23.3-.1-1-1.2-5.7-12.2-5.8-11-.1-20.5 2.1-21.6 5-1.1 2.9-2.3 9.7-4.6 16.3-2.3 6.6-29 66.2-36 81.6-3.6 7.9-6.7 14.2-8.9 18.5s-.1.3-.4.8c-1.9 3.7-3 5.7-3 5.7v.1c-1.5 2.7-3.1 5.2-3.9 5.2-.6 0-1.7-7.2.2-17 4-20.7 13.5-52.9 13.4-54 0-.6 1.8-6.2-6.2-9.1-7.8-2.9-10.6 1.9-11.3 1.9-.7 0-1.2 1.7-1.2 1.7s8.7-36.2-16.6-36.2c-15.8 0-37.6 17.3-48.4 32.9-6.8 3.7-21.3 11.6-36.8 20.1-5.9 3.3-12 6.6-17.7 9.7-.4-.4-.8-.9-1.2-1.3-30.6-32.7-87.2-55.8-84.8-99.7.9-16 6.4-58 108.7-109 84.2-41.5 151.2-30 162.8-4.5 16.6 36.4-35.9 104-122.9 113.8-33.2 3.7-50.6-9.1-55-13.9-4.6-5-5.3-5.3-7-4.3-2.8 1.5-1 6 0 8.6 2.6 6.8 13.3 18.8 31.4 24.7 16 5.2 54.9 8.1 102-10.1 52.7-20.4 93.9-77.1 81.8-124.6C330.7 2 250.7-13.9 175 13 130 29 81.2 54.2 46.1 87 4.4 126-2.2 159.9.5 174.1c9.7 50.4 79.2 83.2 107 107.5-1.4.8-2.7 1.5-3.8 2.1-13.9 6.9-66.9 34.6-80.1 63.9-15 33.2 2.4 57 13.9 60.2 35.7 9.9 72.4-7.9 92.1-37.3 19.7-29.4 17.3-67.6 8.2-85.1-.1-.2-.2-.4-.4-.6 3.6-2.1 7.3-4.3 10.9-6.4 7.1-4.2 14.1-8.1 20.1-11.3-3.4 9.3-5.9 20.4-7.1 36.4-1.5 18.8 6.2 43.2 16.3 52.8 4.5 4.2 9.8 4.3 13.2 4.3 11.8 0 17.1-9.8 23-21.4 7.2-14.2 13.7-30.7 13.7-30.7s-8.1 44.6 13.9 44.6c8 0 16.1-10.4 19.7-15.7v.1s.2-.3.6-1c.8-1.3 1.3-2.1 1.3-2.1v-.2c3.2-5.6 10.4-18.3 21.1-39.4 13.8-27.2 27.1-61.2 27.1-61.2s1.2 8.3 5.3 22.1c2.4 8.1 7.4 17 11.4 25.6-3.2 4.5-5.2 7-5.2 7l.1.1c-2.6 3.4-5.4 7.1-8.5 10.7-10.9 13-23.9 27.9-25.7 32.2-2.1 5.1-1.6 8.8 2.4 11.8 2.9 2.2 8.1 2.5 13.4 2.2 9.8-.7 16.7-3.1 20.1-4.6 5.3-1.9 11.5-4.8 17.3-9.1 10.7-7.9 17.2-19.2 16.6-34.1-.3-8.2-3-16.4-6.3-24.1 1-1.4 1.9-2.8 2.9-4.2 16.9-24.7 30-51.8 30-51.8s1.2 8.3 5.3 22.1c2 7 6.1 14.6 9.7 22-15.9 12.9-25.7 27.9-29.2 37.7-6.3 18.2-1.4 26.4 7.9 28.3 4.2.9 10.2-1.1 14.6-3 5.6-1.8 12.2-4.9 18.5-9.5 10.7-7.9 21-18.9 20.4-33.8-.3-6.8-2.1-13.5-4.6-20 13.5-5.6 30.9-8.7 53.1-6.1 47.6 5.6 57 35.3 55.2 47.8-1.8 12.5-11.8 19.3-15.1 21.4-3.3 2.1-4.4 2.8-4.1 4.3.4 2.2 2 2.1 4.8 1.7 3.9-.7 25-10.1 25.9-33.1 1.5-29.4-26.5-61.5-76-61.2zM104.2 359.8C88.4 377 66.4 383.5 56.9 378c-10.2-5.9-6.2-31.3 13.2-49.5 11.8-11.1 27-21.4 37.1-27.7 2.3-1.4 5.7-3.4 9.8-5.9.7-.4 1.1-.6 1.1-.6l2.4-1.5c7.1 26 .3 48.9-16.3 67zm115-78.2c-5.5 13.4-17 47.7-24 45.8-6-1.6-9.7-27.6-1.2-53.3 4.3-12.9 13.4-28.3 18.7-34.3 8.6-9.6 18.1-12.8 20.4-8.9 2.9 5.1-10.5 42.3-13.9 50.7zm94.9 45.4c-2.3 1.2-4.5 2-5.5 1.4-.7-.4 1-2 1-2s11.9-12.8 16.6-18.6c2.7-3.4 5.9-7.4 9.3-11.9v1.3c0 15.3-14.8 25.6-21.4 29.8zm73.2-16.7c-1.7-1.2-1.4-5.2 4.3-17.7 2.2-4.9 7.4-13.1 16.3-21 1 3.2 1.7 6.3 1.6 9.2-.1 19.3-13.9 26.5-22.2 29.5z"/></svg><svg viewBox="0 0 512 512" id="telegram" xmlns="http://www.w3.org/2000/svg"><path d="M502 50v412c0 22.09-17.91 40-40 40H50c-22.09 0-40-17.91-40-40V50c0-22.09 17.91-40 40-40h412c22.09 0 40 17.91 40 40zm0 0" fill="#78d2fa"/><path d="M401 151L167.57 289.922 106 266zm0 0M226 310.621L206 386l50.86-50.86L346 406l55-255zm0 0" fill="#f0f0fa"/><path d="M386 53c0 5.523-4.477 10-10 10s-10-4.477-10-10 4.477-10 10-10 10 4.477 10 10zm0 0M397.367 141.684l-295 115a9.998 9.998 0 00.012 18.636l57.52 22.348c6.585 16.46 36.425 91.09 36.898 92.215 2.773 6.562 11.3 8.176 16.273 3.187l44.551-44.55 82.156 65.308c5.75 4.57 14.422 1.578 16-5.719l55-255c1.637-7.64-5.867-14.359-13.41-11.425zM292.031 204.21l-125.386 74.621-33.07-12.848zm29.555 5.687L219.262 303.23c-1.328 1.215-2.422 2.938-2.918 4.797a.072.072 0 00-.008.028l-12.262 46.207-24.047-60.121zm-89.84 118.059l10.117 8.04-16.672 16.671zm107.871 60.195c-19.09-15.175-80.508-63.988-98.207-78.054L384.63 179.465zm0 0"/><path d="M462 0H50C22.43 0 0 22.43 0 50v412c0 27.57 22.43 50 50 50h412c27.57 0 50-22.43 50-50V50c0-27.57-22.43-50-50-50zm30 462c0 16.543-13.457 30-30 30H50c-16.543 0-30-13.457-30-30V50c0-16.543 13.457-30 30-30h412c16.543 0 30 13.457 30 30zm0 0"/><path d="M136 63h200c5.523 0 10-4.477 10-10s-4.477-10-10-10H136c-5.523 0-10 4.477-10 10s4.477 10 10 10zm0 0"/></svg><svg viewBox="0 0 512 512" id="vk" xmlns="http://www.w3.org/2000/svg"><path d="M446 502H66c-30.928 0-56-25.072-56-56V66c0-30.928 25.072-56 56-56h380c30.928 0 56 25.072 56 56v380c0 30.928-25.072 56-56 56z" fill="#2d82c8"/><path d="M94.397 163h43.393a15.485 15.485 0 0114.765 10.81c4.356 13.733 12.998 38.213 25.111 59.524 9.837 17.306 21.765 31.824 30.56 41.433 4.41 4.818 12.44 1.682 12.44-4.85v-62.622a43.901 43.901 0 00-8.24-25.605l-4.246-5.914A8.07 8.07 0 01214.736 163h60.68c5.477 0 9.917 4.44 9.917 9.917v80.28c0 5.211 5.39 8.676 10.131 6.512l4.127-1.884a6.018 6.018 0 001.886-1.352 266.38 266.38 0 0050.001-75.575l4.538-10.34a12.62 12.62 0 0111.57-7.548l42.844.05c8.037.009 13.166 8.578 9.378 15.666l-19.794 37.037a134.454 134.454 0 01-8.529 13.868l-23.164 33.008a14.464 14.464 0 001.865 18.783l16.964 16.154a208.507 208.507 0 0134.038 42.124l5.075 8.289c4.738 7.739-.831 17.678-9.905 17.678h-36.989a27.704 27.704 0 01-19.862-8.39l-36.986-38.031a53.662 53.662 0 00-26.964-15.002c-5.252-1.153-10.224 2.846-10.224 8.223v37.366c0 8.745-7.089 15.833-15.833 15.833a141.27 141.27 0 01-85.827-29.06 254.133 254.133 0 01-90.217-132.943l-8.094-28.731C83.674 168.943 88.175 163 94.397 163z" fill="#fff"/><path d="M416.358 375.667h-36.989c-10.122 0-19.974-4.162-27.03-11.417l-36.986-38.03a43.52 43.52 0 00-20.02-11.74v35.354c0 14.244-11.589 25.833-25.833 25.833-33.029 0-65.667-11.051-91.902-31.117a264.86 264.86 0 01-28.132-24.878c-3.866-3.943-3.804-10.275.14-14.142 3.945-3.867 10.276-3.802 14.142.14a244.9 244.9 0 0026.001 22.994c22.767 17.413 51.09 27.003 79.752 27.003a5.84 5.84 0 005.833-5.833v-37.366a18.335 18.335 0 016.876-14.353 18.332 18.332 0 0115.493-3.637 63.48 63.48 0 0131.988 17.797l36.986 38.03a17.8 17.8 0 0012.692 5.361h36.989c.233 0 .945 0 1.407-.825s.091-1.432-.031-1.631l-5.074-8.289a198.62 198.62 0 00-32.406-40.104l-16.964-16.154c-8.839-8.417-10.166-21.778-3.154-31.77l23.164-33.008a125.189 125.189 0 007.896-12.838l19.794-37.036c.068-.129.173-.323-.016-.638-.188-.314-.409-.315-.555-.315l-42.845-.049h-.003c-1.039 0-1.98.614-2.397 1.566l-4.538 10.34a275.711 275.711 0 01-51.878 78.413 15.946 15.946 0 01-5.018 3.594l-4.123 1.882a17.082 17.082 0 01-16.403-1.175 17.087 17.087 0 01-7.881-14.434V173h-56.835l2.053 2.858c6.617 9.217 10.116 20.088 10.116 31.437v62.622c0 7.137-4.3 13.42-10.954 16.005-6.646 2.584-14.05.853-18.862-4.404-8.784-9.596-21.443-24.888-31.877-43.244-12.717-22.371-21.717-48.098-25.95-61.441a5.47 5.47 0 00-5.233-3.833H95.206l7.875 27.951a244.683 244.683 0 0018.734 47.098c2.563 4.892.676 10.936-4.217 13.499-4.894 2.563-10.936.674-13.498-4.217a264.6 264.6 0 01-20.27-50.957l-8.095-28.73c-1.661-5.897-.492-12.079 3.205-16.962C82.64 155.8 88.272 153 94.396 153h43.394c11.159 0 20.923 7.148 24.298 17.786 3.995 12.595 12.461 36.826 24.272 57.606 7.713 13.569 16.824 25.371 24.307 34.062v-55.159a33.7 33.7 0 00-6.363-19.772l-4.246-5.915a17.961 17.961 0 01-3.391-10.538c0-9.964 8.105-18.07 18.069-18.07h60.681c10.981 0 19.916 8.935 19.916 19.917v75.487a255.708 255.708 0 0046.988-71.525l4.538-10.34a22.62 22.62 0 0120.712-13.529h.026l42.845.049c7.318.008 13.933 3.763 17.691 10.042 3.76 6.28 3.944 13.883.494 20.337l-19.794 37.037a145.059 145.059 0 01-9.163 14.899l-23.164 33.008a4.438 4.438 0 00.575 5.797l16.965 16.154a218.599 218.599 0 0135.67 44.145l5.074 8.289a21.637 21.637 0 01.423 21.85 21.631 21.631 0 01-18.855 11.05z"/><path d="M131.938 293.381a9.988 9.988 0 01-8.136-4.174l8.127-5.827-8.17 5.768-.068-.096c-3.218-4.488-2.188-10.735 2.3-13.954 4.489-3.219 10.735-2.188 13.954 2.3l.111.155c3.218 4.488 2.188 10.735-2.3 13.954a9.959 9.959 0 01-5.818 1.874zM204.864 464h-81.5c-5.522 0-10-4.477-10-10s4.478-10 10-10h81.5c5.522 0 10 4.477 10 10s-4.477 10-10 10zM250.364 464h-.119c-5.522 0-10-4.477-10-10s4.478-10 10-10h.119c5.522 0 10 4.477 10 10s-4.477 10-10 10z"/><path d="M446 512H66c-36.393 0-66-29.607-66-66V66C0 29.607 29.607 0 66 0h380c36.393 0 66 29.607 66 66v380c0 36.393-29.607 66-66 66zM66 20c-25.364 0-46 20.636-46 46v380c0 25.364 20.636 46 46 46h380c25.364 0 46-20.636 46-46V66c0-25.364-20.636-46-46-46H66z"/></svg><svg viewBox="0 0 261.76 226.69" id="vuejs" xmlns="http://www.w3.org/2000/svg"><path d="M161.096.001l-30.224 52.35L100.647.002H-.005L130.872 226.69 261.749 0z" fill="#41b883"/><path d="M161.096.001l-30.224 52.35L100.647.002H52.346l78.526 136.01L209.398.001z" fill="#34495e"/></svg></svg>